# Blender 4.3.2
# www.blender.org
mtllib Tophat.mtl
o Cylinder
v -0.175485 -1.000000 -0.882223
v 0.000000 1.000000 -1.000000
v -0.344226 -1.000000 -0.831036
v 0.195090 1.000000 -0.980785
v -0.499739 -1.000000 -0.747913
v 0.382683 1.000000 -0.923880
v -0.636048 -1.000000 -0.636048
v 0.555570 1.000000 -0.831470
v -0.747913 -1.000000 -0.499739
v 0.707107 1.000000 -0.707107
v -0.831036 -1.000000 -0.344226
v 0.831470 1.000000 -0.555570
v -0.882223 -1.000000 -0.175485
v 0.923880 1.000000 -0.382683
v -0.899507 -1.000000 0.000000
v 0.980785 1.000000 -0.195090
v -0.882223 -1.000000 0.175485
v 1.000000 1.000000 0.000000
v -0.831036 -1.000000 0.344226
v 0.980785 1.000000 0.195090
v -0.747913 -1.000000 0.499739
v 0.923880 1.000000 0.382683
v -0.636048 -1.000000 0.636048
v 0.831470 1.000000 0.555570
v -0.499739 -1.000000 0.747913
v 0.707107 1.000000 0.707107
v -0.344226 -1.000000 0.831036
v 0.555570 1.000000 0.831470
v -0.175485 -1.000000 0.882223
v 0.382683 1.000000 0.923880
v 0.000000 -1.000000 0.899507
v 0.195090 1.000000 0.980785
v 0.175485 -1.000000 0.882223
v 0.000000 1.000000 1.000000
v 0.344226 -1.000000 0.831036
v -0.195090 1.000000 0.980785
v 0.499739 -1.000000 0.747913
v -0.382683 1.000000 0.923880
v 0.636048 -1.000000 0.636048
v -0.555570 1.000000 0.831470
v 0.747913 -1.000000 0.499739
v -0.707107 1.000000 0.707107
v 0.831036 -1.000000 0.344226
v -0.831470 1.000000 0.555570
v 0.882223 -1.000000 0.175485
v -0.923880 1.000000 0.382683
v 0.899507 -1.000000 0.000000
v -0.980785 1.000000 0.195090
v 0.882223 -1.000000 -0.175485
v -1.000000 1.000000 0.000000
v 0.831036 -1.000000 -0.344226
v -0.980785 1.000000 -0.195090
v 0.747913 -1.000000 -0.499739
v -0.923880 1.000000 -0.382683
v 0.636048 -1.000000 -0.636048
v -0.831470 1.000000 -0.555570
v 0.499739 -1.000000 -0.747913
v -0.707107 1.000000 -0.707107
v 0.344226 -1.000000 -0.831036
v -0.555570 1.000000 -0.831470
v 0.175485 -1.000000 -0.882223
v -0.382683 1.000000 -0.923880
v 0.000000 -1.000000 -0.899507
v -0.195090 1.000000 -0.980785
v 0.000000 -0.777222 -1.000000
v 0.195090 -0.777222 -0.980785
v 0.382683 -0.777222 -0.923880
v 0.555570 -0.777222 -0.831470
v 0.707107 -0.777222 -0.707107
v 0.831470 -0.777222 -0.555570
v 0.923880 -0.777222 -0.382683
v 0.980785 -0.777222 -0.195090
v 1.000000 -0.777222 0.000000
v 0.980785 -0.777222 0.195090
v 0.923880 -0.777222 0.382683
v 0.831470 -0.777222 0.555570
v 0.707107 -0.777222 0.707107
v 0.555570 -0.777222 0.831470
v 0.382683 -0.777222 0.923880
v 0.195090 -0.777222 0.980785
v 0.000000 -0.777222 1.000000
v -0.195090 -0.777222 0.980785
v -0.382683 -0.777222 0.923880
v -0.555570 -0.777222 0.831470
v -0.707107 -0.777222 0.707107
v -0.831470 -0.777222 0.555570
v -0.923880 -0.777222 0.382683
v -0.980785 -0.777222 0.195090
v -1.000000 -0.777222 0.000000
v -0.980785 -0.777222 -0.195090
v -0.923880 -0.777222 -0.382683
v -0.831470 -0.777222 -0.555570
v -0.707107 -0.777222 -0.707107
v -0.555570 -0.777222 -0.831470
v -0.382683 -0.777222 -0.923880
v -0.195090 -0.777222 -0.980785
v 0.000000 -0.777222 -1.000000
v 0.195090 -0.777222 -0.980785
v 0.382683 -0.777222 -0.923880
v 0.555570 -0.777222 -0.831470
v 0.707107 -0.777222 -0.707107
v 0.831470 -0.777222 -0.555570
v 0.923880 -0.777222 -0.382683
v 0.980785 -0.777222 -0.195090
v 1.000000 -0.777222 0.000000
v 0.980785 -0.777222 0.195090
v 0.923880 -0.777222 0.382683
v 0.831470 -0.777222 0.555570
v 0.707107 -0.777222 0.707107
v 0.555570 -0.777222 0.831470
v 0.382683 -0.777222 0.923880
v 0.195090 -0.777222 0.980785
v 0.000000 -0.777222 1.000000
v -0.195090 -0.777222 0.980785
v -0.382683 -0.777222 0.923880
v -0.555570 -0.777222 0.831470
v -0.707107 -0.777222 0.707107
v -0.831470 -0.777222 0.555570
v -0.923880 -0.777222 0.382683
v -0.980785 -0.777222 0.195090
v -1.000000 -0.777222 0.000000
v -0.980785 -0.777222 -0.195090
v -0.923880 -0.777222 -0.382683
v -0.831470 -0.777222 -0.555570
v -0.707107 -0.777222 -0.707107
v -0.555570 -0.777222 -0.831470
v -0.382683 -0.777222 -0.923880
v -0.195090 -0.777222 -0.980785
v 0.000000 -0.777222 -1.238046
v 0.241531 -0.777222 -1.214258
v 0.473780 -0.777222 -1.143806
v 0.687822 -0.777222 -1.029398
v 0.875431 -0.777222 -0.875431
v 1.029398 -0.777222 -0.687822
v 1.143806 -0.777222 -0.473780
v 1.214258 -0.777222 -0.241531
v 1.238046 -0.777222 0.000000
v 1.214258 -0.777222 0.241531
v 1.143806 -0.777222 0.473780
v 1.029398 -0.777222 0.687822
v 0.875431 -0.777222 0.875431
v 0.687822 -0.777222 1.029398
v 0.473780 -0.777222 1.143806
v 0.241531 -0.777222 1.214258
v 0.000000 -0.777222 1.238046
v -0.241531 -0.777222 1.214258
v -0.473780 -0.777222 1.143806
v -0.687822 -0.777222 1.029398
v -0.875431 -0.777222 0.875431
v -1.029398 -0.777222 0.687822
v -1.143806 -0.777222 0.473780
v -1.214258 -0.777222 0.241531
v -1.238046 -0.777222 0.000000
v -1.214258 -0.777222 -0.241531
v -1.143806 -0.777222 -0.473780
v -1.029398 -0.777222 -0.687822
v -0.875431 -0.777222 -0.875431
v -0.687822 -0.777222 -1.029398
v -0.473780 -0.777222 -1.143806
v -0.241531 -0.777222 -1.214258
v 0.241531 -1.000000 1.214258
v 0.000000 -1.000000 1.238046
v 0.473780 -1.000000 1.143806
v 0.687822 -1.000000 1.029398
v 0.875431 -1.000000 0.875431
v 1.029398 -1.000000 0.687822
v 1.143806 -1.000000 0.473780
v 1.214258 -1.000000 0.241531
v 1.238046 -1.000000 0.000000
v 1.214258 -1.000000 -0.241531
v 1.143806 -1.000000 -0.473780
v 1.029398 -1.000000 -0.687822
v 0.875431 -1.000000 -0.875431
v 0.687822 -1.000000 -1.029398
v 0.473780 -1.000000 -1.143806
v 0.241531 -1.000000 -1.214258
v 0.000000 -1.000000 -1.238046
v -0.241531 -1.000000 1.214258
v -0.473780 -1.000000 1.143806
v -0.687822 -1.000000 1.029398
v -0.875431 -1.000000 0.875431
v -1.029398 -1.000000 0.687822
v -1.143806 -1.000000 0.473780
v -1.214258 -1.000000 0.241531
v -1.238046 -1.000000 0.000000
v -1.214258 -1.000000 -0.241531
v -1.143806 -1.000000 -0.473780
v -1.029398 -1.000000 -0.687822
v -0.875431 -1.000000 -0.875431
v -0.687822 -1.000000 -1.029398
v -0.473780 -1.000000 -1.143806
v -0.241531 -1.000000 -1.214258
v 0.175485 0.035651 0.882223
v 0.000000 0.035651 0.899507
v 0.344226 0.035651 0.831036
v 0.499739 0.035651 0.747913
v 0.636048 0.035651 0.636048
v 0.747913 0.035651 0.499739
v 0.831036 0.035651 0.344226
v 0.882223 0.035651 0.175485
v 0.899507 0.035651 0.000000
v 0.882223 0.035651 -0.175485
v 0.831036 0.035651 -0.344226
v 0.747913 0.035651 -0.499739
v 0.636048 0.035651 -0.636048
v 0.499739 0.035651 -0.747913
v 0.344226 0.035651 -0.831036
v 0.175485 0.035651 -0.882223
v 0.000000 0.035651 -0.899507
v -0.175485 0.035651 0.882223
v -0.344226 0.035651 0.831036
v -0.499739 0.035651 0.747913
v -0.636048 0.035651 0.636048
v -0.747913 0.035651 0.499739
v -0.831036 0.035651 0.344226
v -0.882223 0.035651 0.175485
v -0.899507 0.035651 0.000000
v -0.882223 0.035651 -0.175485
v -0.831036 0.035651 -0.344226
v -0.747913 0.035651 -0.499739
v -0.636048 0.035651 -0.636048
v -0.499739 0.035651 -0.747913
v -0.344226 0.035651 -0.831036
v -0.175485 0.035651 -0.882223
vn 0.0980 -0.0000 -0.9952
vn 0.2903 -0.0000 -0.9569
vn 0.4714 -0.0000 -0.8819
vn 0.6344 -0.0000 -0.7730
vn 0.7730 -0.0000 -0.6344
vn 0.8819 -0.0000 -0.4714
vn 0.9569 -0.0000 -0.2903
vn 0.9952 -0.0000 -0.0980
vn 0.9952 -0.0000 0.0980
vn 0.9569 -0.0000 0.2903
vn 0.8819 -0.0000 0.4714
vn 0.7730 -0.0000 0.6344
vn 0.6344 -0.0000 0.7730
vn 0.4714 -0.0000 0.8819
vn 0.2903 -0.0000 0.9569
vn 0.0980 -0.0000 0.9952
vn -0.0980 -0.0000 0.9952
vn -0.2903 -0.0000 0.9569
vn -0.4714 -0.0000 0.8819
vn -0.6344 -0.0000 0.7730
vn -0.7730 -0.0000 0.6344
vn -0.8819 -0.0000 0.4714
vn -0.9569 -0.0000 0.2903
vn -0.9952 -0.0000 0.0980
vn -0.9952 -0.0000 -0.0980
vn -0.9569 -0.0000 -0.2903
vn -0.8819 -0.0000 -0.4714
vn -0.7730 -0.0000 -0.6344
vn -0.6344 -0.0000 -0.7730
vn -0.4714 -0.0000 -0.8819
vn -0.0000 1.0000 -0.0000
vn -0.2903 -0.0000 -0.9569
vn -0.0980 -0.0000 -0.9952
vn -0.0000 -1.0000 -0.0000
vt 1.000000 0.555694
vt 1.000000 1.000000
vt 0.968750 1.000000
vt 0.968750 0.555694
vt 0.937500 1.000000
vt 0.937500 0.555694
vt 0.906250 1.000000
vt 0.906250 0.555694
vt 0.875000 1.000000
vt 0.875000 0.555694
vt 0.843750 1.000000
vt 0.843750 0.555694
vt 0.812500 1.000000
vt 0.812500 0.555694
vt 0.781250 1.000000
vt 0.781250 0.555694
vt 0.750000 1.000000
vt 0.750000 0.555694
vt 0.718750 1.000000
vt 0.718750 0.555694
vt 0.687500 1.000000
vt 0.687500 0.555694
vt 0.656250 1.000000
vt 0.656250 0.555694
vt 0.625000 1.000000
vt 0.625000 0.555694
vt 0.593750 1.000000
vt 0.593750 0.555694
vt 0.562500 1.000000
vt 0.562500 0.555694
vt 0.531250 1.000000
vt 0.531250 0.555694
vt 0.500000 1.000000
vt 0.500000 0.555694
vt 0.468750 1.000000
vt 0.468750 0.555694
vt 0.437500 1.000000
vt 0.437500 0.555694
vt 0.406250 1.000000
vt 0.406250 0.555694
vt 0.375000 1.000000
vt 0.375000 0.555694
vt 0.343750 1.000000
vt 0.343750 0.555694
vt 0.312500 1.000000
vt 0.312500 0.555694
vt 0.281250 1.000000
vt 0.281250 0.555694
vt 0.250000 1.000000
vt 0.250000 0.555694
vt 0.218750 1.000000
vt 0.218750 0.555694
vt 0.187500 1.000000
vt 0.187500 0.555694
vt 0.156250 1.000000
vt 0.156250 0.555694
vt 0.125000 1.000000
vt 0.125000 0.555694
vt 0.093750 1.000000
vt 0.093750 0.555694
vt 0.062500 1.000000
vt 0.062500 0.555694
vt 0.158156 0.028269
vt 0.471731 0.158156
vt 0.341844 0.471731
vt 0.031250 1.000000
vt 0.031250 0.555694
vt 0.000000 1.000000
vt 0.000000 0.555694
vt 0.846876 0.394986
vt 0.873300 0.373300
vt 0.296822 0.485388
vt 0.250000 0.490000
vt 0.031250 0.500000
vt 0.000000 0.500000
vt 0.062500 0.500000
vt 0.093750 0.500000
vt 0.125000 0.500000
vt 0.156250 0.500000
vt 0.187500 0.500000
vt 0.218750 0.500000
vt 0.250000 0.500000
vt 0.281250 0.500000
vt 0.312500 0.500000
vt 0.343750 0.500000
vt 0.375000 0.500000
vt 0.406250 0.500000
vt 0.437500 0.500000
vt 0.468750 0.500000
vt 0.500000 0.500000
vt 0.531250 0.500000
vt 0.562500 0.500000
vt 0.593750 0.500000
vt 0.625000 0.500000
vt 0.656250 0.500000
vt 0.687500 0.500000
vt 0.718750 0.500000
vt 0.750000 0.500000
vt 0.781250 0.500000
vt 0.812500 0.500000
vt 0.843750 0.500000
vt 0.875000 0.500000
vt 0.906250 0.500000
vt 0.937500 0.500000
vt 0.968750 0.500000
vt 1.000000 0.500000
vt 0.203178 0.485388
vt 0.158156 0.471731
vt 0.116663 0.449553
vt 0.080294 0.419706
vt 0.050447 0.383337
vt 0.028269 0.341844
vt 0.014612 0.296822
vt 0.010000 0.250000
vt 0.014612 0.203178
vt 0.028269 0.158156
vt 0.050447 0.116663
vt 0.080294 0.080294
vt 0.116663 0.050447
vt 0.203178 0.014612
vt 0.341844 0.028269
vt 0.250000 0.010000
vt 0.296822 0.014612
vt 0.383337 0.050447
vt 0.419706 0.080294
vt 0.449553 0.116663
vt 0.485388 0.203178
vt 0.471731 0.341844
vt 0.490000 0.250000
vt 0.485388 0.296822
vt 0.449553 0.383337
vt 0.419706 0.419706
vt 0.383337 0.449553
vt 0.750000 0.075627
vt 0.784018 0.078978
vt 0.796822 0.014612
vt 0.750000 0.010000
vt 0.816730 0.088900
vt 0.841844 0.028269
vt 0.846876 0.105014
vt 0.883337 0.050447
vt 0.873300 0.126700
vt 0.919706 0.080294
vt 0.894986 0.153124
vt 0.949553 0.116663
vt 0.911100 0.183270
vt 0.971731 0.158156
vt 0.921022 0.215982
vt 0.985388 0.203178
vt 0.924373 0.250000
vt 0.990000 0.250000
vt 0.921023 0.284019
vt 0.985388 0.296822
vt 0.911100 0.316730
vt 0.971731 0.341844
vt 0.894986 0.346876
vt 0.949553 0.383337
vt 0.919706 0.419706
vt 0.883337 0.449553
vt 0.816730 0.411100
vt 0.841844 0.471731
vt 0.784018 0.421022
vt 0.796822 0.485388
vt 0.750000 0.424373
vt 0.750000 0.490000
vt 0.715982 0.078978
vt 0.703178 0.014612
vt 0.683270 0.088900
vt 0.658156 0.028269
vt 0.653124 0.105014
vt 0.616663 0.050447
vt 0.626700 0.126700
vt 0.580294 0.080294
vt 0.605014 0.153124
vt 0.550447 0.116663
vt 0.588900 0.183270
vt 0.528269 0.158156
vt 0.578978 0.215982
vt 0.514612 0.203178
vt 0.575627 0.250000
vt 0.510000 0.250000
vt 0.578978 0.284018
vt 0.514612 0.296822
vt 0.588900 0.316730
vt 0.528269 0.341844
vt 0.605014 0.346876
vt 0.550447 0.383337
vt 0.626700 0.373300
vt 0.580294 0.419706
vt 0.653124 0.394986
vt 0.616663 0.449553
vt 0.683270 0.411100
vt 0.658156 0.471731
vt 0.715982 0.421022
vt 0.703178 0.485388
s 0
f 65/1/1 2/2/1 4/3/1 66/4/1
f 66/4/2 4/3/2 6/5/2 67/6/2
f 67/6/3 6/5/3 8/7/3 68/8/3
f 68/8/4 8/7/4 10/9/4 69/10/4
f 69/10/5 10/9/5 12/11/5 70/12/5
f 70/12/6 12/11/6 14/13/6 71/14/6
f 71/14/7 14/13/7 16/15/7 72/16/7
f 72/16/8 16/15/8 18/17/8 73/18/8
f 73/18/9 18/17/9 20/19/9 74/20/9
f 74/20/10 20/19/10 22/21/10 75/22/10
f 75/22/11 22/21/11 24/23/11 76/24/11
f 76/24/12 24/23/12 26/25/12 77/26/12
f 77/26/13 26/25/13 28/27/13 78/28/13
f 78/28/14 28/27/14 30/29/14 79/30/14
f 79/30/15 30/29/15 32/31/15 80/32/15
f 80/32/16 32/31/16 34/33/16 81/34/16
f 81/34/17 34/33/17 36/35/17 82/36/17
f 82/36/18 36/35/18 38/37/18 83/38/18
f 83/38/19 38/37/19 40/39/19 84/40/19
f 84/40/20 40/39/20 42/41/20 85/42/20
f 85/42/21 42/41/21 44/43/21 86/44/21
f 86/44/22 44/43/22 46/45/22 87/46/22
f 87/46/23 46/45/23 48/47/23 88/48/23
f 88/48/24 48/47/24 50/49/24 89/50/24
f 89/50/25 50/49/25 52/51/25 90/52/25
f 90/52/26 52/51/26 54/53/26 91/54/26
f 91/54/27 54/53/27 56/55/27 92/56/27
f 92/56/28 56/55/28 58/57/28 93/58/28
f 93/58/29 58/57/29 60/59/29 94/60/29
f 94/60/30 60/59/30 62/61/30 95/62/30
f 38/63/31 22/64/31 6/65/31
f 95/62/32 62/61/32 64/66/32 96/67/32
f 96/67/33 64/66/33 2/68/33 65/69/33
f 57/70/20 55/71/20 205/71/20 206/70/20
f 81/34/31 82/36/31 114/36/31 113/34/31
f 68/8/31 69/10/31 101/10/31 100/8/31
f 95/62/31 96/67/31 128/67/31 127/62/31
f 82/36/31 83/38/31 115/38/31 114/36/31
f 69/10/31 70/12/31 102/12/31 101/10/31
f 96/67/31 65/69/31 97/69/31 128/67/31
f 83/38/31 84/40/31 116/40/31 115/38/31
f 70/12/31 71/14/31 103/14/31 102/12/31
f 84/40/31 85/42/31 117/42/31 116/40/31
f 71/14/31 72/16/31 104/16/31 103/14/31
f 85/42/31 86/44/31 118/44/31 117/42/31
f 72/16/31 73/18/31 105/18/31 104/16/31
f 86/44/31 87/46/31 119/46/31 118/44/31
f 73/18/31 74/20/31 106/20/31 105/18/31
f 87/46/31 88/48/31 120/48/31 119/46/31
f 74/20/31 75/22/31 107/22/31 106/20/31
f 88/48/31 89/50/31 121/50/31 120/48/31
f 75/22/31 76/24/31 108/24/31 107/22/31
f 89/50/31 90/52/31 122/52/31 121/50/31
f 76/24/31 77/26/31 109/26/31 108/24/31
f 90/52/31 91/54/31 123/54/31 122/52/31
f 77/26/31 78/28/31 110/28/31 109/26/31
f 91/54/31 92/56/31 124/56/31 123/54/31
f 78/28/31 79/30/31 111/30/31 110/28/31
f 65/1/31 66/4/31 98/4/31 97/1/31
f 92/56/31 93/58/31 125/58/31 124/56/31
f 79/30/31 80/32/31 112/32/31 111/30/31
f 66/4/31 67/6/31 99/6/31 98/4/31
f 93/58/31 94/60/31 126/60/31 125/58/31
f 80/32/31 81/34/31 113/34/31 112/32/31
f 67/6/31 68/8/31 100/8/31 99/6/31
f 94/60/31 95/62/31 127/62/31 126/60/31
f 6/65/31 4/72/31 2/73/31
f 115/38/31 116/40/31 148/40/31 147/38/31
f 102/12/31 103/14/31 135/14/31 134/12/31
f 116/40/31 117/42/31 149/42/31 148/40/31
f 103/14/31 104/16/31 136/16/31 135/14/31
f 117/42/31 118/44/31 150/44/31 149/42/31
f 104/16/31 105/18/31 137/18/31 136/16/31
f 118/44/31 119/46/31 151/46/31 150/44/31
f 105/18/31 106/20/31 138/20/31 137/18/31
f 119/46/31 120/48/31 152/48/31 151/46/31
f 106/20/31 107/22/31 139/22/31 138/20/31
f 120/48/31 121/50/31 153/50/31 152/48/31
f 107/22/31 108/24/31 140/24/31 139/22/31
f 121/50/31 122/52/31 154/52/31 153/50/31
f 108/24/31 109/26/31 141/26/31 140/24/31
f 122/52/31 123/54/31 155/54/31 154/52/31
f 109/26/31 110/28/31 142/28/31 141/26/31
f 123/54/31 124/56/31 156/56/31 155/54/31
f 110/28/31 111/30/31 143/30/31 142/28/31
f 97/1/31 98/4/31 130/4/31 129/1/31
f 124/56/31 125/58/31 157/58/31 156/56/31
f 111/30/31 112/32/31 144/32/31 143/30/31
f 98/4/31 99/6/31 131/6/31 130/4/31
f 125/58/31 126/60/31 158/60/31 157/58/31
f 112/32/31 113/34/31 145/34/31 144/32/31
f 99/6/31 100/8/31 132/8/31 131/6/31
f 126/60/31 127/62/31 159/62/31 158/60/31
f 113/34/31 114/36/31 146/36/31 145/34/31
f 100/8/31 101/10/31 133/10/31 132/8/31
f 127/62/31 128/67/31 160/67/31 159/62/31
f 114/36/31 115/38/31 147/38/31 146/36/31
f 101/10/31 102/12/31 134/12/31 133/10/31
f 128/67/31 97/69/31 129/69/31 160/67/31
f 192/74/33 160/67/33 129/69/33 177/75/33
f 191/76/32 159/62/32 160/67/32 192/74/32
f 190/77/30 158/60/30 159/62/30 191/76/30
f 189/78/29 157/58/29 158/60/29 190/77/29
f 188/79/28 156/56/28 157/58/28 189/78/28
f 187/80/27 155/54/27 156/56/27 188/79/27
f 186/81/26 154/52/26 155/54/26 187/80/26
f 185/82/25 153/50/25 154/52/25 186/81/25
f 184/83/24 152/48/24 153/50/24 185/82/24
f 183/84/23 151/46/23 152/48/23 184/83/23
f 182/85/22 150/44/22 151/46/22 183/84/22
f 181/86/21 149/42/21 150/44/21 182/85/21
f 180/87/20 148/40/20 149/42/20 181/86/20
f 179/88/19 147/38/19 148/40/19 180/87/19
f 178/89/18 146/36/18 147/38/18 179/88/18
f 162/90/17 145/34/17 146/36/17 178/89/17
f 161/91/16 144/32/16 145/34/16 162/90/16
f 163/92/15 143/30/15 144/32/15 161/91/15
f 164/93/14 142/28/14 143/30/14 163/92/14
f 165/94/13 141/26/13 142/28/13 164/93/13
f 166/95/12 140/24/12 141/26/12 165/94/12
f 167/96/11 139/22/11 140/24/11 166/95/11
f 168/97/10 138/20/10 139/22/10 167/96/10
f 169/98/9 137/18/9 138/20/9 168/97/9
f 170/99/8 136/16/8 137/18/8 169/98/8
f 171/100/7 135/14/7 136/16/7 170/99/7
f 172/101/6 134/12/6 135/14/6 171/100/6
f 173/102/5 133/10/5 134/12/5 172/101/5
f 174/103/4 132/8/4 133/10/4 173/102/4
f 175/104/3 131/6/3 132/8/3 174/103/3
f 176/105/2 130/4/2 131/6/2 175/104/2
f 177/106/1 129/1/1 130/4/1 176/105/1
f 2/73/31 64/107/31 6/65/31
f 64/107/31 62/108/31 6/65/31
f 62/108/31 60/109/31 58/110/31
f 58/110/31 56/111/31 54/112/31
f 54/112/31 52/113/31 50/114/31
f 50/114/31 48/115/31 54/112/31
f 48/115/31 46/116/31 54/112/31
f 46/116/31 44/117/31 42/118/31
f 42/118/31 40/119/31 38/63/31
f 38/63/31 36/120/31 30/121/31
f 36/120/31 34/122/31 30/121/31
f 34/122/31 32/123/31 30/121/31
f 30/121/31 28/124/31 26/125/31
f 26/125/31 24/126/31 22/64/31
f 22/64/31 20/127/31 14/128/31
f 20/127/31 18/129/31 14/128/31
f 18/129/31 16/130/31 14/128/31
f 14/128/31 12/131/31 10/132/31
f 10/132/31 8/133/31 6/65/31
f 62/108/31 58/110/31 6/65/31
f 58/110/31 54/112/31 6/65/31
f 46/116/31 42/118/31 54/112/31
f 42/118/31 38/63/31 54/112/31
f 30/121/31 26/125/31 38/63/31
f 26/125/31 22/64/31 38/63/31
f 14/128/31 10/132/31 22/64/31
f 10/132/31 6/65/31 22/64/31
f 6/65/31 54/112/31 38/63/31
f 31/134/34 33/135/34 161/136/34 162/137/34
f 33/135/34 35/138/34 163/139/34 161/136/34
f 35/138/34 37/140/34 164/141/34 163/139/34
f 37/140/34 39/142/34 165/143/34 164/141/34
f 39/142/34 41/144/34 166/145/34 165/143/34
f 41/144/34 43/146/34 167/147/34 166/145/34
f 43/146/34 45/148/34 168/149/34 167/147/34
f 45/148/34 47/150/34 169/151/34 168/149/34
f 47/150/34 49/152/34 170/153/34 169/151/34
f 49/152/34 51/154/34 171/155/34 170/153/34
f 51/154/34 53/156/34 172/157/34 171/155/34
f 53/156/34 55/71/34 173/158/34 172/157/34
f 55/71/34 57/70/34 174/159/34 173/158/34
f 57/70/34 59/160/34 175/161/34 174/159/34
f 59/160/34 61/162/34 176/163/34 175/161/34
f 61/162/34 63/164/34 177/165/34 176/163/34
f 29/166/34 31/134/34 162/137/34 178/167/34
f 27/168/34 29/166/34 178/167/34 179/169/34
f 25/170/34 27/168/34 179/169/34 180/171/34
f 23/172/34 25/170/34 180/171/34 181/173/34
f 21/174/34 23/172/34 181/173/34 182/175/34
f 19/176/34 21/174/34 182/175/34 183/177/34
f 17/178/34 19/176/34 183/177/34 184/179/34
f 15/180/34 17/178/34 184/179/34 185/181/34
f 13/182/34 15/180/34 185/181/34 186/183/34
f 11/184/34 13/182/34 186/183/34 187/185/34
f 9/186/34 11/184/34 187/185/34 188/187/34
f 7/188/34 9/186/34 188/187/34 189/189/34
f 5/190/34 7/188/34 189/189/34 190/191/34
f 3/192/34 5/190/34 190/191/34 191/193/34
f 1/194/34 3/192/34 191/193/34 192/195/34
f 63/164/34 1/194/34 192/195/34 177/165/34
f 193/135/34 216/178/34 224/194/34
f 11/184/11 9/186/11 220/186/11 219/184/11
f 59/160/19 57/70/19 206/70/19 207/160/19
f 33/135/33 31/134/33 194/134/33 193/135/33
f 9/186/12 7/188/12 221/188/12 220/186/12
f 61/162/18 59/160/18 207/160/18 208/162/18
f 35/138/32 33/135/32 193/135/32 195/138/32
f 7/188/13 5/190/13 222/190/13 221/188/13
f 63/164/17 61/162/17 208/162/17 209/164/17
f 37/140/30 35/138/30 195/138/30 196/140/30
f 5/190/14 3/192/14 223/192/14 222/190/14
f 31/134/1 29/166/1 210/166/1 194/134/1
f 39/142/29 37/140/29 196/140/29 197/142/29
f 3/192/15 1/194/15 224/194/15 223/192/15
f 29/166/2 27/168/2 211/168/2 210/166/2
f 41/144/28 39/142/28 197/142/28 198/144/28
f 1/194/16 63/164/16 209/164/16 224/194/16
f 27/168/3 25/170/3 212/170/3 211/168/3
f 43/146/27 41/144/27 198/144/27 199/146/27
f 25/170/4 23/172/4 213/172/4 212/170/4
f 45/148/26 43/146/26 199/146/26 200/148/26
f 23/172/5 21/174/5 214/174/5 213/172/5
f 47/150/25 45/148/25 200/148/25 201/150/25
f 21/174/6 19/176/6 215/176/6 214/174/6
f 49/152/24 47/150/24 201/150/24 202/152/24
f 19/176/7 17/178/7 216/178/7 215/176/7
f 51/154/23 49/152/23 202/152/23 203/154/23
f 17/178/8 15/180/8 217/180/8 216/178/8
f 53/156/22 51/154/22 203/154/22 204/156/22
f 15/180/9 13/182/9 218/182/9 217/180/9
f 55/71/21 53/156/21 204/156/21 205/71/21
f 13/182/10 11/184/10 219/184/10 218/182/10
f 224/194/34 209/164/34 206/70/34
f 209/164/34 208/162/34 206/70/34
f 208/162/34 207/160/34 206/70/34
f 206/70/34 205/71/34 204/156/34
f 204/156/34 203/154/34 202/152/34
f 202/152/34 201/150/34 198/144/34
f 201/150/34 200/148/34 198/144/34
f 200/148/34 199/146/34 198/144/34
f 198/144/34 197/142/34 193/135/34
f 197/142/34 196/140/34 193/135/34
f 196/140/34 195/138/34 193/135/34
f 193/135/34 194/134/34 212/170/34
f 194/134/34 210/166/34 212/170/34
f 210/166/34 211/168/34 212/170/34
f 212/170/34 213/172/34 216/178/34
f 213/172/34 214/174/34 216/178/34
f 214/174/34 215/176/34 216/178/34
f 216/178/34 217/180/34 220/186/34
f 217/180/34 218/182/34 220/186/34
f 218/182/34 219/184/34 220/186/34
f 220/186/34 221/188/34 224/194/34
f 221/188/34 222/190/34 224/194/34
f 222/190/34 223/192/34 224/194/34
f 206/70/34 204/156/34 224/194/34
f 204/156/34 202/152/34 224/194/34
f 202/152/34 198/144/34 193/135/34
f 193/135/34 212/170/34 216/178/34
f 216/178/34 220/186/34 224/194/34
f 224/194/34 202/152/34 193/135/34
